%TF.GenerationSoftware,KiCad,Pcbnew,9.0.0*%
%TF.CreationDate,2025-07-17T14:07:15-07:00*%
%TF.ProjectId,TRL_fixture_JLC04161H-7628,54524c5f-6669-4787-9475-72655f4a4c43,rev?*%
%TF.SameCoordinates,Original*%
%TF.FileFunction,Legend,Top*%
%TF.FilePolarity,Positive*%
%FSLAX46Y46*%
G04 Gerber Fmt 4.6, Leading zero omitted, Abs format (unit mm)*
G04 Created by KiCad (PCBNEW 9.0.0) date 2025-07-17 14:07:15*
%MOMM*%
%LPD*%
G01*
G04 APERTURE LIST*
%ADD10C,0.100000*%
%ADD11C,0.150000*%
%ADD12C,0.120000*%
G04 APERTURE END LIST*
D10*
X107468000Y-101000000D02*
X107718000Y-101000000D01*
X76750000Y-101000000D02*
X77000000Y-101000000D01*
X122468000Y-101000000D02*
X122718000Y-101000000D01*
X124468000Y-101000000D02*
X124718000Y-101000000D01*
X105968000Y-101000000D02*
X106218000Y-101000000D01*
X54500000Y-101000000D02*
X54750000Y-101000000D01*
X76250000Y-108000000D02*
X76500000Y-108000000D01*
X122968000Y-101000000D02*
X123218000Y-101000000D01*
X139968000Y-101000000D02*
X140218000Y-101000000D01*
X127218000Y-101000000D02*
X127468000Y-101000000D01*
X141468000Y-101000000D02*
X141718000Y-101000000D01*
X56500000Y-143000000D02*
X56750000Y-143000000D01*
X140468000Y-101000000D02*
X140718000Y-101000000D01*
X139468000Y-101000000D02*
X139718000Y-101000000D01*
X106468000Y-101000000D02*
X106718000Y-101000000D01*
X78250000Y-108000000D02*
X78500000Y-108000000D01*
X145718000Y-101000000D02*
X145968000Y-101000000D01*
X129218000Y-101000000D02*
X129468000Y-101000000D01*
X61250000Y-101000000D02*
X61500000Y-101000000D01*
X59250000Y-143000000D02*
X59500000Y-143000000D01*
X59750000Y-101000000D02*
X60000000Y-101000000D01*
X110718000Y-101000000D02*
X110968000Y-101000000D01*
X76250000Y-101000000D02*
X76500000Y-101000000D01*
X55000000Y-143000000D02*
X55250000Y-143000000D01*
X61250000Y-143000000D02*
X61500000Y-143000000D01*
X111718000Y-101000000D02*
X111968000Y-101000000D01*
X71500000Y-108000000D02*
X71750000Y-108000000D01*
X76750000Y-108000000D02*
X77000000Y-108000000D01*
X77250000Y-101000000D02*
X77500000Y-101000000D01*
X55000000Y-101000000D02*
X55250000Y-101000000D01*
X106968000Y-101000000D02*
X107218000Y-101000000D01*
X60750000Y-143000000D02*
X61000000Y-143000000D01*
X110218000Y-101000000D02*
X110468000Y-101000000D01*
X59750000Y-143000000D02*
X60000000Y-143000000D01*
X95218000Y-101000000D02*
X95468000Y-101000000D01*
X72500000Y-108000000D02*
X72750000Y-108000000D01*
X56000000Y-143000000D02*
X56250000Y-143000000D01*
X144718000Y-101000000D02*
X144968000Y-101000000D01*
X90468000Y-101000000D02*
X90718000Y-101000000D01*
X56000000Y-101000000D02*
X56250000Y-101000000D01*
X60250000Y-101000000D02*
X60500000Y-101000000D01*
X93718000Y-101000000D02*
X93968000Y-101000000D01*
X77250000Y-108000000D02*
X77500000Y-108000000D01*
X72000000Y-101000000D02*
X72250000Y-101000000D01*
X88468000Y-101000000D02*
X88718000Y-101000000D01*
X55500000Y-143000000D02*
X55750000Y-143000000D01*
X123968000Y-101000000D02*
X124218000Y-101000000D01*
X105468000Y-101000000D02*
X105718000Y-101000000D01*
X71500000Y-101000000D02*
X71750000Y-101000000D01*
X140968000Y-101000000D02*
X141218000Y-101000000D01*
X94218000Y-101000000D02*
X94468000Y-101000000D01*
X144218000Y-101000000D02*
X144468000Y-101000000D01*
X56500000Y-101000000D02*
X56750000Y-101000000D01*
X127718000Y-101000000D02*
X127968000Y-101000000D01*
X77750000Y-108000000D02*
X78000000Y-108000000D01*
X128718000Y-101000000D02*
X128968000Y-101000000D01*
X145218000Y-101000000D02*
X145468000Y-101000000D01*
X111218000Y-101000000D02*
X111468000Y-101000000D01*
X54500000Y-143000000D02*
X54750000Y-143000000D01*
X78250000Y-101000000D02*
X78500000Y-101000000D01*
X72500000Y-101000000D02*
X72750000Y-101000000D01*
X73000000Y-101000000D02*
X73250000Y-101000000D01*
X128218000Y-101000000D02*
X128468000Y-101000000D01*
X60250000Y-143000000D02*
X60500000Y-143000000D01*
X72000000Y-108000000D02*
X72250000Y-108000000D01*
X93218000Y-101000000D02*
X93468000Y-101000000D01*
X88968000Y-101000000D02*
X89218000Y-101000000D01*
X89468000Y-101000000D02*
X89718000Y-101000000D01*
X73500000Y-108000000D02*
X73750000Y-108000000D01*
X77750000Y-101000000D02*
X78000000Y-101000000D01*
X112218000Y-101000000D02*
X112468000Y-101000000D01*
X73000000Y-108000000D02*
X73250000Y-108000000D01*
X55500000Y-101000000D02*
X55750000Y-101000000D01*
X59250000Y-101000000D02*
X59500000Y-101000000D01*
X94718000Y-101000000D02*
X94968000Y-101000000D01*
X73500000Y-101000000D02*
X73750000Y-101000000D01*
X89968000Y-101000000D02*
X90218000Y-101000000D01*
X60750000Y-101000000D02*
X61000000Y-101000000D01*
X146218000Y-101000000D02*
X146468000Y-101000000D01*
X123468000Y-101000000D02*
X123718000Y-101000000D01*
D11*
X98666666Y-105622819D02*
X98666666Y-106337104D01*
X98666666Y-106337104D02*
X98619047Y-106479961D01*
X98619047Y-106479961D02*
X98523809Y-106575200D01*
X98523809Y-106575200D02*
X98380952Y-106622819D01*
X98380952Y-106622819D02*
X98285714Y-106622819D01*
X99666666Y-106622819D02*
X99095238Y-106622819D01*
X99380952Y-106622819D02*
X99380952Y-105622819D01*
X99380952Y-105622819D02*
X99285714Y-105765676D01*
X99285714Y-105765676D02*
X99190476Y-105860914D01*
X99190476Y-105860914D02*
X99095238Y-105908533D01*
X147916666Y-96872819D02*
X147916666Y-97587104D01*
X147916666Y-97587104D02*
X147869047Y-97729961D01*
X147869047Y-97729961D02*
X147773809Y-97825200D01*
X147773809Y-97825200D02*
X147630952Y-97872819D01*
X147630952Y-97872819D02*
X147535714Y-97872819D01*
X148869047Y-96872819D02*
X148392857Y-96872819D01*
X148392857Y-96872819D02*
X148345238Y-97349009D01*
X148345238Y-97349009D02*
X148392857Y-97301390D01*
X148392857Y-97301390D02*
X148488095Y-97253771D01*
X148488095Y-97253771D02*
X148726190Y-97253771D01*
X148726190Y-97253771D02*
X148821428Y-97301390D01*
X148821428Y-97301390D02*
X148869047Y-97349009D01*
X148869047Y-97349009D02*
X148916666Y-97444247D01*
X148916666Y-97444247D02*
X148916666Y-97682342D01*
X148916666Y-97682342D02*
X148869047Y-97777580D01*
X148869047Y-97777580D02*
X148821428Y-97825200D01*
X148821428Y-97825200D02*
X148726190Y-97872819D01*
X148726190Y-97872819D02*
X148488095Y-97872819D01*
X148488095Y-97872819D02*
X148392857Y-97825200D01*
X148392857Y-97825200D02*
X148345238Y-97777580D01*
X63666666Y-145286819D02*
X63666666Y-146001104D01*
X63666666Y-146001104D02*
X63619047Y-146143961D01*
X63619047Y-146143961D02*
X63523809Y-146239200D01*
X63523809Y-146239200D02*
X63380952Y-146286819D01*
X63380952Y-146286819D02*
X63285714Y-146286819D01*
X64285714Y-145715390D02*
X64190476Y-145667771D01*
X64190476Y-145667771D02*
X64142857Y-145620152D01*
X64142857Y-145620152D02*
X64095238Y-145524914D01*
X64095238Y-145524914D02*
X64095238Y-145477295D01*
X64095238Y-145477295D02*
X64142857Y-145382057D01*
X64142857Y-145382057D02*
X64190476Y-145334438D01*
X64190476Y-145334438D02*
X64285714Y-145286819D01*
X64285714Y-145286819D02*
X64476190Y-145286819D01*
X64476190Y-145286819D02*
X64571428Y-145334438D01*
X64571428Y-145334438D02*
X64619047Y-145382057D01*
X64619047Y-145382057D02*
X64666666Y-145477295D01*
X64666666Y-145477295D02*
X64666666Y-145524914D01*
X64666666Y-145524914D02*
X64619047Y-145620152D01*
X64619047Y-145620152D02*
X64571428Y-145667771D01*
X64571428Y-145667771D02*
X64476190Y-145715390D01*
X64476190Y-145715390D02*
X64285714Y-145715390D01*
X64285714Y-145715390D02*
X64190476Y-145763009D01*
X64190476Y-145763009D02*
X64142857Y-145810628D01*
X64142857Y-145810628D02*
X64095238Y-145905866D01*
X64095238Y-145905866D02*
X64095238Y-146096342D01*
X64095238Y-146096342D02*
X64142857Y-146191580D01*
X64142857Y-146191580D02*
X64190476Y-146239200D01*
X64190476Y-146239200D02*
X64285714Y-146286819D01*
X64285714Y-146286819D02*
X64476190Y-146286819D01*
X64476190Y-146286819D02*
X64571428Y-146239200D01*
X64571428Y-146239200D02*
X64619047Y-146191580D01*
X64619047Y-146191580D02*
X64666666Y-146096342D01*
X64666666Y-146096342D02*
X64666666Y-145905866D01*
X64666666Y-145905866D02*
X64619047Y-145810628D01*
X64619047Y-145810628D02*
X64571428Y-145763009D01*
X64571428Y-145763009D02*
X64476190Y-145715390D01*
X131884666Y-94872819D02*
X131884666Y-95587104D01*
X131884666Y-95587104D02*
X131837047Y-95729961D01*
X131837047Y-95729961D02*
X131741809Y-95825200D01*
X131741809Y-95825200D02*
X131598952Y-95872819D01*
X131598952Y-95872819D02*
X131503714Y-95872819D01*
X132789428Y-95206152D02*
X132789428Y-95872819D01*
X132551333Y-94825200D02*
X132313238Y-95539485D01*
X132313238Y-95539485D02*
X132932285Y-95539485D01*
X62916666Y-98372819D02*
X62916666Y-99087104D01*
X62916666Y-99087104D02*
X62869047Y-99229961D01*
X62869047Y-99229961D02*
X62773809Y-99325200D01*
X62773809Y-99325200D02*
X62630952Y-99372819D01*
X62630952Y-99372819D02*
X62535714Y-99372819D01*
X63440476Y-99372819D02*
X63630952Y-99372819D01*
X63630952Y-99372819D02*
X63726190Y-99325200D01*
X63726190Y-99325200D02*
X63773809Y-99277580D01*
X63773809Y-99277580D02*
X63869047Y-99134723D01*
X63869047Y-99134723D02*
X63916666Y-98944247D01*
X63916666Y-98944247D02*
X63916666Y-98563295D01*
X63916666Y-98563295D02*
X63869047Y-98468057D01*
X63869047Y-98468057D02*
X63821428Y-98420438D01*
X63821428Y-98420438D02*
X63726190Y-98372819D01*
X63726190Y-98372819D02*
X63535714Y-98372819D01*
X63535714Y-98372819D02*
X63440476Y-98420438D01*
X63440476Y-98420438D02*
X63392857Y-98468057D01*
X63392857Y-98468057D02*
X63345238Y-98563295D01*
X63345238Y-98563295D02*
X63345238Y-98801390D01*
X63345238Y-98801390D02*
X63392857Y-98896628D01*
X63392857Y-98896628D02*
X63440476Y-98944247D01*
X63440476Y-98944247D02*
X63535714Y-98991866D01*
X63535714Y-98991866D02*
X63726190Y-98991866D01*
X63726190Y-98991866D02*
X63821428Y-98944247D01*
X63821428Y-98944247D02*
X63869047Y-98896628D01*
X63869047Y-98896628D02*
X63916666Y-98801390D01*
X81166666Y-98372819D02*
X81166666Y-99087104D01*
X81166666Y-99087104D02*
X81119047Y-99229961D01*
X81119047Y-99229961D02*
X81023809Y-99325200D01*
X81023809Y-99325200D02*
X80880952Y-99372819D01*
X80880952Y-99372819D02*
X80785714Y-99372819D01*
X82071428Y-98372819D02*
X81880952Y-98372819D01*
X81880952Y-98372819D02*
X81785714Y-98420438D01*
X81785714Y-98420438D02*
X81738095Y-98468057D01*
X81738095Y-98468057D02*
X81642857Y-98610914D01*
X81642857Y-98610914D02*
X81595238Y-98801390D01*
X81595238Y-98801390D02*
X81595238Y-99182342D01*
X81595238Y-99182342D02*
X81642857Y-99277580D01*
X81642857Y-99277580D02*
X81690476Y-99325200D01*
X81690476Y-99325200D02*
X81785714Y-99372819D01*
X81785714Y-99372819D02*
X81976190Y-99372819D01*
X81976190Y-99372819D02*
X82071428Y-99325200D01*
X82071428Y-99325200D02*
X82119047Y-99277580D01*
X82119047Y-99277580D02*
X82166666Y-99182342D01*
X82166666Y-99182342D02*
X82166666Y-98944247D01*
X82166666Y-98944247D02*
X82119047Y-98849009D01*
X82119047Y-98849009D02*
X82071428Y-98801390D01*
X82071428Y-98801390D02*
X81976190Y-98753771D01*
X81976190Y-98753771D02*
X81785714Y-98753771D01*
X81785714Y-98753771D02*
X81690476Y-98801390D01*
X81690476Y-98801390D02*
X81642857Y-98849009D01*
X81642857Y-98849009D02*
X81595238Y-98944247D01*
X80416666Y-110536819D02*
X80416666Y-111251104D01*
X80416666Y-111251104D02*
X80369047Y-111393961D01*
X80369047Y-111393961D02*
X80273809Y-111489200D01*
X80273809Y-111489200D02*
X80130952Y-111536819D01*
X80130952Y-111536819D02*
X80035714Y-111536819D01*
X80797619Y-110536819D02*
X81464285Y-110536819D01*
X81464285Y-110536819D02*
X81035714Y-111536819D01*
X144801333Y-103204819D02*
X144468000Y-102728628D01*
X144229905Y-103204819D02*
X144229905Y-102204819D01*
X144229905Y-102204819D02*
X144610857Y-102204819D01*
X144610857Y-102204819D02*
X144706095Y-102252438D01*
X144706095Y-102252438D02*
X144753714Y-102300057D01*
X144753714Y-102300057D02*
X144801333Y-102395295D01*
X144801333Y-102395295D02*
X144801333Y-102538152D01*
X144801333Y-102538152D02*
X144753714Y-102633390D01*
X144753714Y-102633390D02*
X144706095Y-102681009D01*
X144706095Y-102681009D02*
X144610857Y-102728628D01*
X144610857Y-102728628D02*
X144229905Y-102728628D01*
X145753714Y-103204819D02*
X145182286Y-103204819D01*
X145468000Y-103204819D02*
X145468000Y-102204819D01*
X145468000Y-102204819D02*
X145372762Y-102347676D01*
X145372762Y-102347676D02*
X145277524Y-102442914D01*
X145277524Y-102442914D02*
X145182286Y-102490533D01*
X98166666Y-95786819D02*
X98166666Y-96501104D01*
X98166666Y-96501104D02*
X98119047Y-96643961D01*
X98119047Y-96643961D02*
X98023809Y-96739200D01*
X98023809Y-96739200D02*
X97880952Y-96786819D01*
X97880952Y-96786819D02*
X97785714Y-96786819D01*
X98595238Y-95882057D02*
X98642857Y-95834438D01*
X98642857Y-95834438D02*
X98738095Y-95786819D01*
X98738095Y-95786819D02*
X98976190Y-95786819D01*
X98976190Y-95786819D02*
X99071428Y-95834438D01*
X99071428Y-95834438D02*
X99119047Y-95882057D01*
X99119047Y-95882057D02*
X99166666Y-95977295D01*
X99166666Y-95977295D02*
X99166666Y-96072533D01*
X99166666Y-96072533D02*
X99119047Y-96215390D01*
X99119047Y-96215390D02*
X98547619Y-96786819D01*
X98547619Y-96786819D02*
X99166666Y-96786819D01*
X114884666Y-94872819D02*
X114884666Y-95587104D01*
X114884666Y-95587104D02*
X114837047Y-95729961D01*
X114837047Y-95729961D02*
X114741809Y-95825200D01*
X114741809Y-95825200D02*
X114598952Y-95872819D01*
X114598952Y-95872819D02*
X114503714Y-95872819D01*
X115265619Y-94872819D02*
X115884666Y-94872819D01*
X115884666Y-94872819D02*
X115551333Y-95253771D01*
X115551333Y-95253771D02*
X115694190Y-95253771D01*
X115694190Y-95253771D02*
X115789428Y-95301390D01*
X115789428Y-95301390D02*
X115837047Y-95349009D01*
X115837047Y-95349009D02*
X115884666Y-95444247D01*
X115884666Y-95444247D02*
X115884666Y-95682342D01*
X115884666Y-95682342D02*
X115837047Y-95777580D01*
X115837047Y-95777580D02*
X115789428Y-95825200D01*
X115789428Y-95825200D02*
X115694190Y-95872819D01*
X115694190Y-95872819D02*
X115408476Y-95872819D01*
X115408476Y-95872819D02*
X115313238Y-95825200D01*
X115313238Y-95825200D02*
X115265619Y-95777580D01*
D12*
%TO.C,J1*%
X88468000Y-94418000D02*
X88468000Y-99418000D01*
X88468000Y-99418000D02*
X90718000Y-99418000D01*
X95468000Y-94418000D02*
X95468000Y-99418000D01*
X95468000Y-99418000D02*
X93218000Y-99418000D01*
%TO.C,J5*%
X139468000Y-94418000D02*
X139468000Y-99418000D01*
X139468000Y-99418000D02*
X141718000Y-99418000D01*
X146468000Y-94418000D02*
X146468000Y-99418000D01*
X146468000Y-99418000D02*
X144218000Y-99418000D01*
%TO.C,J8*%
X54468000Y-144582000D02*
X56718000Y-144582000D01*
X54468000Y-149582000D02*
X54468000Y-144582000D01*
X61468000Y-144582000D02*
X59218000Y-144582000D01*
X61468000Y-149582000D02*
X61468000Y-144582000D01*
%TO.C,J4*%
X122468000Y-94418000D02*
X122468000Y-99418000D01*
X122468000Y-99418000D02*
X124718000Y-99418000D01*
X129468000Y-94418000D02*
X129468000Y-99418000D01*
X129468000Y-99418000D02*
X127218000Y-99418000D01*
%TO.C,J9*%
X54468000Y-94418000D02*
X54468000Y-99418000D01*
X54468000Y-99418000D02*
X56718000Y-99418000D01*
X61468000Y-94418000D02*
X61468000Y-99418000D01*
X61468000Y-99418000D02*
X59218000Y-99418000D01*
%TO.C,J6*%
X71468000Y-94418000D02*
X71468000Y-99418000D01*
X71468000Y-99418000D02*
X73718000Y-99418000D01*
X78468000Y-94418000D02*
X78468000Y-99418000D01*
X78468000Y-99418000D02*
X76218000Y-99418000D01*
%TO.C,J7*%
X71468000Y-109582000D02*
X73718000Y-109582000D01*
X71468000Y-114582000D02*
X71468000Y-109582000D01*
X78468000Y-109582000D02*
X76218000Y-109582000D01*
X78468000Y-114582000D02*
X78468000Y-109582000D01*
%TO.C,R1*%
X142588000Y-101596359D02*
X142588000Y-101903641D01*
X143348000Y-101596359D02*
X143348000Y-101903641D01*
%TO.C,J2*%
X88468000Y-102582000D02*
X90718000Y-102582000D01*
X88468000Y-107582000D02*
X88468000Y-102582000D01*
X95468000Y-102582000D02*
X93218000Y-102582000D01*
X95468000Y-107582000D02*
X95468000Y-102582000D01*
%TO.C,J3*%
X105468000Y-94418000D02*
X105468000Y-99418000D01*
X105468000Y-99418000D02*
X107718000Y-99418000D01*
X112468000Y-94418000D02*
X112468000Y-99418000D01*
X112468000Y-99418000D02*
X110218000Y-99418000D01*
%TD*%
M02*
