%TF.GenerationSoftware,KiCad,Pcbnew,9.0.0*%
%TF.CreationDate,2025-07-17T14:07:15-07:00*%
%TF.ProjectId,TRL_fixture_JLC04161H-7628,54524c5f-6669-4787-9475-72655f4a4c43,rev?*%
%TF.SameCoordinates,Original*%
%TF.FileFunction,Soldermask,Top*%
%TF.FilePolarity,Negative*%
%FSLAX46Y46*%
G04 Gerber Fmt 4.6, Leading zero omitted, Abs format (unit mm)*
G04 Created by KiCad (PCBNEW 9.0.0) date 2025-07-17 14:07:15*
%MOMM*%
%LPD*%
G01*
G04 APERTURE LIST*
G04 Aperture macros list*
%AMRoundRect*
0 Rectangle with rounded corners*
0 $1 Rounding radius*
0 $2 $3 $4 $5 $6 $7 $8 $9 X,Y pos of 4 corners*
0 Add a 4 corners polygon primitive as box body*
4,1,4,$2,$3,$4,$5,$6,$7,$8,$9,$2,$3,0*
0 Add four circle primitives for the rounded corners*
1,1,$1+$1,$2,$3*
1,1,$1+$1,$4,$5*
1,1,$1+$1,$6,$7*
1,1,$1+$1,$8,$9*
0 Add four rect primitives between the rounded corners*
20,1,$1+$1,$2,$3,$4,$5,0*
20,1,$1+$1,$4,$5,$6,$7,0*
20,1,$1+$1,$6,$7,$8,$9,0*
20,1,$1+$1,$8,$9,$2,$3,0*%
G04 Aperture macros list end*
%ADD10C,0.100000*%
%ADD11R,0.889000X1.270000*%
%ADD12R,2.286000X4.572000*%
%ADD13RoundRect,0.135000X-0.185000X0.135000X-0.185000X-0.135000X0.185000X-0.135000X0.185000X0.135000X0*%
G04 APERTURE END LIST*
D10*
X108000000Y-94500000D02*
X109857000Y-94500000D01*
X109857000Y-101154000D01*
X108000000Y-101154000D01*
X108000000Y-94500000D01*
G36*
X108000000Y-94500000D02*
G01*
X109857000Y-94500000D01*
X109857000Y-101154000D01*
X108000000Y-101154000D01*
X108000000Y-94500000D01*
G37*
X125039500Y-94500000D02*
X126896500Y-94500000D01*
X126896500Y-102654000D01*
X125039500Y-102654000D01*
X125039500Y-94500000D01*
G36*
X125039500Y-94500000D02*
G01*
X126896500Y-94500000D01*
X126896500Y-102654000D01*
X125039500Y-102654000D01*
X125039500Y-94500000D01*
G37*
X74000000Y-94500000D02*
X75857000Y-94500000D01*
X75857000Y-114418000D01*
X74000000Y-114418000D01*
X74000000Y-94500000D01*
G36*
X74000000Y-94500000D02*
G01*
X75857000Y-94500000D01*
X75857000Y-114418000D01*
X74000000Y-114418000D01*
X74000000Y-94500000D01*
G37*
X142039500Y-94582000D02*
X143896500Y-94582000D01*
X143896500Y-101236000D01*
X142039500Y-101236000D01*
X142039500Y-94582000D01*
G36*
X142039500Y-94582000D02*
G01*
X143896500Y-94582000D01*
X143896500Y-101236000D01*
X142039500Y-101236000D01*
X142039500Y-94582000D01*
G37*
X91079000Y-94500000D02*
X92857000Y-94500000D01*
X92857000Y-107461000D01*
X91079000Y-107461000D01*
X91079000Y-94500000D01*
G36*
X91079000Y-94500000D02*
G01*
X92857000Y-94500000D01*
X92857000Y-107461000D01*
X91079000Y-107461000D01*
X91079000Y-94500000D01*
G37*
X57079000Y-94500000D02*
X58857000Y-94500000D01*
X58857000Y-149336000D01*
X57079000Y-149336000D01*
X57079000Y-94500000D01*
G36*
X57079000Y-94500000D02*
G01*
X58857000Y-94500000D01*
X58857000Y-149336000D01*
X57079000Y-149336000D01*
X57079000Y-94500000D01*
G37*
D11*
%TO.C,J1*%
X91968000Y-95135000D03*
D12*
X89936000Y-96786000D03*
X94000000Y-96786000D03*
%TD*%
D11*
%TO.C,J5*%
X142968000Y-95135000D03*
D12*
X140936000Y-96786000D03*
X145000000Y-96786000D03*
%TD*%
D11*
%TO.C,J8*%
X57968000Y-148865000D03*
D12*
X60000000Y-147214000D03*
X55936000Y-147214000D03*
%TD*%
D11*
%TO.C,J4*%
X125968000Y-95135000D03*
D12*
X123936000Y-96786000D03*
X128000000Y-96786000D03*
%TD*%
D11*
%TO.C,J9*%
X57968000Y-95135000D03*
D12*
X55936000Y-96786000D03*
X60000000Y-96786000D03*
%TD*%
D11*
%TO.C,J6*%
X74968000Y-95135000D03*
D12*
X72936000Y-96786000D03*
X77000000Y-96786000D03*
%TD*%
D11*
%TO.C,J7*%
X74968000Y-113865000D03*
D12*
X77000000Y-112214000D03*
X72936000Y-112214000D03*
%TD*%
D13*
%TO.C,R1*%
X142968000Y-101240000D03*
X142968000Y-102260000D03*
%TD*%
D11*
%TO.C,J2*%
X91968000Y-106865000D03*
D12*
X94000000Y-105214000D03*
X89936000Y-105214000D03*
%TD*%
D11*
%TO.C,J3*%
X108968000Y-95135000D03*
D12*
X106936000Y-96786000D03*
X111000000Y-96786000D03*
%TD*%
M02*
