%TF.GenerationSoftware,KiCad,Pcbnew,9.0.0*%
%TF.CreationDate,2025-07-17T14:07:15-07:00*%
%TF.ProjectId,TRL_fixture_JLC04161H-7628,54524c5f-6669-4787-9475-72655f4a4c43,rev?*%
%TF.SameCoordinates,Original*%
%TF.FileFunction,Copper,L1,Top*%
%TF.FilePolarity,Positive*%
%FSLAX46Y46*%
G04 Gerber Fmt 4.6, Leading zero omitted, Abs format (unit mm)*
G04 Created by KiCad (PCBNEW 9.0.0) date 2025-07-17 14:07:15*
%MOMM*%
%LPD*%
G01*
G04 APERTURE LIST*
G04 Aperture macros list*
%AMRoundRect*
0 Rectangle with rounded corners*
0 $1 Rounding radius*
0 $2 $3 $4 $5 $6 $7 $8 $9 X,Y pos of 4 corners*
0 Add a 4 corners polygon primitive as box body*
4,1,4,$2,$3,$4,$5,$6,$7,$8,$9,$2,$3,0*
0 Add four circle primitives for the rounded corners*
1,1,$1+$1,$2,$3*
1,1,$1+$1,$4,$5*
1,1,$1+$1,$6,$7*
1,1,$1+$1,$8,$9*
0 Add four rect primitives between the rounded corners*
20,1,$1+$1,$2,$3,$4,$5,0*
20,1,$1+$1,$4,$5,$6,$7,0*
20,1,$1+$1,$6,$7,$8,$9,0*
20,1,$1+$1,$8,$9,$2,$3,0*%
G04 Aperture macros list end*
%TA.AperFunction,Conductor*%
%ADD10C,0.200000*%
%TD*%
%TA.AperFunction,EtchedComponent*%
%ADD11C,0.000000*%
%TD*%
%TA.AperFunction,SMDPad,CuDef*%
%ADD12C,0.300000*%
%TD*%
%TA.AperFunction,SMDPad,CuDef*%
%ADD13C,0.223606*%
%TD*%
%TA.AperFunction,SMDPad,CuDef*%
%ADD14R,0.889000X1.270000*%
%TD*%
%TA.AperFunction,SMDPad,CuDef*%
%ADD15R,2.286000X4.572000*%
%TD*%
%TA.AperFunction,SMDPad,CuDef*%
%ADD16RoundRect,0.135000X-0.185000X0.135000X-0.185000X-0.135000X0.185000X-0.135000X0.185000X0.135000X0*%
%TD*%
%TA.AperFunction,ViaPad*%
%ADD17C,0.600000*%
%TD*%
%TA.AperFunction,Conductor*%
%ADD18C,0.350000*%
%TD*%
G04 APERTURE END LIST*
%TO.N,GND*%
D10*
X107343000Y-101000000D02*
X110593000Y-101000000D01*
X110593000Y-102750000D01*
X107343000Y-102750000D01*
X107343000Y-101000000D01*
%TA.AperFunction,Conductor*%
G36*
X107343000Y-101000000D02*
G01*
X110593000Y-101000000D01*
X110593000Y-102750000D01*
X107343000Y-102750000D01*
X107343000Y-101000000D01*
G37*
%TD.AperFunction*%
D11*
%TA.AperFunction,EtchedComponent*%
%TD*%
%TO.C,NT1*%
G36*
X109137500Y-101250000D02*
G01*
X108787500Y-101250000D01*
X108787500Y-100250000D01*
X109137500Y-100250000D01*
X109137500Y-101250000D01*
G37*
%TD.AperFunction*%
D12*
%TO.P,NT1,2,2*%
%TO.N,/SHORT*%
X108937500Y-100400000D03*
D13*
%TO.P,NT1,1,1*%
%TO.N,GND*%
X108937500Y-101100000D03*
%TD*%
D14*
%TO.P,J1,1,In*%
%TO.N,Net-(J1-In)*%
X91968000Y-95135000D03*
D15*
%TO.P,J1,2,Ext*%
%TO.N,GND*%
X89936000Y-96786000D03*
X94000000Y-96786000D03*
%TD*%
D14*
%TO.P,J5,1,In*%
%TO.N,Net-(J5-In)*%
X142968000Y-95135000D03*
D15*
%TO.P,J5,2,Ext*%
%TO.N,GND*%
X140936000Y-96786000D03*
X145000000Y-96786000D03*
%TD*%
D14*
%TO.P,J8,1,In*%
%TO.N,Net-(J8-In)*%
X57968000Y-148865000D03*
D15*
%TO.P,J8,2,Ext*%
%TO.N,GND*%
X60000000Y-147214000D03*
X55936000Y-147214000D03*
%TD*%
D14*
%TO.P,J4,1,In*%
%TO.N,unconnected-(J4-In-Pad1)*%
X125968000Y-95135000D03*
D15*
%TO.P,J4,2,Ext*%
%TO.N,GND*%
X123936000Y-96786000D03*
X128000000Y-96786000D03*
%TD*%
D14*
%TO.P,J9,1,In*%
%TO.N,Net-(J8-In)*%
X57968000Y-95135000D03*
D15*
%TO.P,J9,2,Ext*%
%TO.N,GND*%
X55936000Y-96786000D03*
X60000000Y-96786000D03*
%TD*%
D14*
%TO.P,J6,1,In*%
%TO.N,Net-(J6-In)*%
X74968000Y-95135000D03*
D15*
%TO.P,J6,2,Ext*%
%TO.N,GND*%
X72936000Y-96786000D03*
X77000000Y-96786000D03*
%TD*%
D14*
%TO.P,J7,1,In*%
%TO.N,Net-(J6-In)*%
X74968000Y-113865000D03*
D15*
%TO.P,J7,2,Ext*%
%TO.N,GND*%
X77000000Y-112214000D03*
X72936000Y-112214000D03*
%TD*%
D16*
%TO.P,R1,1*%
%TO.N,Net-(J5-In)*%
X142968000Y-101240000D03*
%TO.P,R1,2*%
%TO.N,GND*%
X142968000Y-102260000D03*
%TD*%
D14*
%TO.P,J2,1,In*%
%TO.N,Net-(J1-In)*%
X91968000Y-106865000D03*
D15*
%TO.P,J2,2,Ext*%
%TO.N,GND*%
X94000000Y-105214000D03*
X89936000Y-105214000D03*
%TD*%
D14*
%TO.P,J3,1,In*%
%TO.N,/SHORT*%
X108968000Y-95135000D03*
D15*
%TO.P,J3,2,Ext*%
%TO.N,GND*%
X106936000Y-96786000D03*
X111000000Y-96786000D03*
%TD*%
D17*
%TO.N,GND*%
X60000000Y-105000000D03*
X60000000Y-115000000D03*
X60000000Y-132500000D03*
X107000000Y-100000000D03*
X60000000Y-122500000D03*
X138250000Y-95000000D03*
X73000000Y-107500000D03*
X96500000Y-95000000D03*
X56000000Y-105000000D03*
X62500000Y-144750000D03*
X56000000Y-127500000D03*
X77000000Y-100000000D03*
X60000000Y-140000000D03*
X60000000Y-112500000D03*
X96750000Y-102500000D03*
X56000000Y-125000000D03*
X130750000Y-95000000D03*
X111000000Y-100000000D03*
X60000000Y-143500000D03*
X121250000Y-99000000D03*
X145000000Y-100000000D03*
X147500000Y-95000000D03*
X60000000Y-137500000D03*
X62500000Y-99000000D03*
X87250000Y-95000000D03*
X70000000Y-109750000D03*
X104250000Y-95000000D03*
X60000000Y-100000000D03*
X77000000Y-102500000D03*
X70000000Y-113750000D03*
X124000000Y-100000000D03*
X60000000Y-102500000D03*
X56000000Y-130000000D03*
X77000000Y-105250000D03*
X56000000Y-100000000D03*
X56000000Y-132500000D03*
X77000000Y-107500000D03*
X96750000Y-106500000D03*
X109000000Y-101750000D03*
X53500000Y-95000000D03*
X77000000Y-109500000D03*
X62500000Y-148750000D03*
X104250000Y-99000000D03*
X138250000Y-99000000D03*
X60000000Y-127500000D03*
X113500000Y-95000000D03*
X80000000Y-113750000D03*
X56000000Y-143500000D03*
X56000000Y-120000000D03*
X60000000Y-135000000D03*
X143000000Y-103250000D03*
X62500000Y-95000000D03*
X87250000Y-99000000D03*
X56000000Y-122500000D03*
X56000000Y-140000000D03*
X121250000Y-95000000D03*
X56000000Y-110000000D03*
X126000000Y-102750000D03*
X56000000Y-102500000D03*
X60000000Y-117500000D03*
X73000000Y-102500000D03*
X52750000Y-148750000D03*
X60000000Y-125000000D03*
X56000000Y-115000000D03*
X90000000Y-100000000D03*
X73000000Y-100000000D03*
X94000000Y-102250000D03*
X141000000Y-100000000D03*
X90000000Y-102250000D03*
X60000000Y-130000000D03*
X56000000Y-135000000D03*
X56000000Y-137500000D03*
X60000000Y-110000000D03*
X56000000Y-117500000D03*
X87250000Y-106500000D03*
X60000000Y-107500000D03*
X128000000Y-100000000D03*
X96500000Y-99000000D03*
X73000000Y-105250000D03*
X80000000Y-109750000D03*
X94000000Y-100000000D03*
X60000000Y-120000000D03*
X87250000Y-102500000D03*
X52750000Y-144750000D03*
X53500000Y-99000000D03*
X147500000Y-99000000D03*
X113500000Y-99000000D03*
X56000000Y-107500000D03*
X56000000Y-112500000D03*
X73000000Y-109500000D03*
X130750000Y-99000000D03*
%TD*%
D18*
%TO.N,Net-(J8-In)*%
X57968000Y-148865000D02*
X57968000Y-95168000D01*
%TO.N,/SHORT*%
X108968000Y-95135000D02*
X108968000Y-100250000D01*
%TO.N,Net-(J1-In)*%
X91970314Y-100997686D02*
X91968000Y-101000000D01*
X91970314Y-94719314D02*
X91970314Y-100997686D01*
X91968000Y-107283000D02*
X91968000Y-101004628D01*
X91968000Y-94717000D02*
X91970314Y-94719314D01*
%TO.N,unconnected-(J4-In-Pad1)*%
X125968000Y-94750000D02*
X125968000Y-101000000D01*
%TO.N,Net-(J5-In)*%
X142968000Y-94750000D02*
X142968000Y-101000000D01*
%TO.N,Net-(J6-In)*%
X74968000Y-94750000D02*
X74968000Y-114278372D01*
%TD*%
%TA.AperFunction,Conductor*%
%TO.N,GND*%
G36*
X56766039Y-94520185D02*
G01*
X56811794Y-94572989D01*
X56823000Y-94624500D01*
X56823000Y-95826613D01*
X56829413Y-95897192D01*
X56880022Y-96059606D01*
X56968030Y-96205188D01*
X57056181Y-96293339D01*
X57089666Y-96354662D01*
X57092500Y-96381020D01*
X57092500Y-147618980D01*
X57072815Y-147686019D01*
X57056181Y-147706661D01*
X56968031Y-147794810D01*
X56968030Y-147794811D01*
X56880022Y-147940393D01*
X56829413Y-148102807D01*
X56823000Y-148173386D01*
X56823000Y-149375500D01*
X56803315Y-149442539D01*
X56750511Y-149488294D01*
X56699000Y-149499500D01*
X51006962Y-149499500D01*
X50993078Y-149498720D01*
X50980553Y-149497308D01*
X50902735Y-149488540D01*
X50875666Y-149482362D01*
X50796462Y-149454648D01*
X50771444Y-149442600D01*
X50700395Y-149397957D01*
X50678686Y-149380644D01*
X50619355Y-149321313D01*
X50602042Y-149299604D01*
X50557399Y-149228555D01*
X50545351Y-149203537D01*
X50517637Y-149124333D01*
X50511459Y-149097263D01*
X50501280Y-149006922D01*
X50500500Y-148993038D01*
X50500500Y-95006961D01*
X50501280Y-94993077D01*
X50501280Y-94993076D01*
X50511460Y-94902729D01*
X50517635Y-94875670D01*
X50545353Y-94796456D01*
X50557396Y-94771450D01*
X50602046Y-94700389D01*
X50619351Y-94678690D01*
X50678690Y-94619351D01*
X50700389Y-94602046D01*
X50771450Y-94557396D01*
X50796456Y-94545353D01*
X50875670Y-94517635D01*
X50902733Y-94511459D01*
X50965419Y-94504396D01*
X50993079Y-94501280D01*
X51006962Y-94500500D01*
X51065892Y-94500500D01*
X56699000Y-94500500D01*
X56766039Y-94520185D01*
G37*
%TD.AperFunction*%
%TA.AperFunction,Conductor*%
G36*
X73766039Y-94520185D02*
G01*
X73811794Y-94572989D01*
X73823000Y-94624500D01*
X73823000Y-95826613D01*
X73829413Y-95897192D01*
X73880022Y-96059606D01*
X73968030Y-96205188D01*
X74056181Y-96293339D01*
X74089666Y-96354662D01*
X74092500Y-96381020D01*
X74092500Y-112618980D01*
X74072815Y-112686019D01*
X74056181Y-112706661D01*
X73968031Y-112794810D01*
X73968030Y-112794811D01*
X73880022Y-112940393D01*
X73829413Y-113102807D01*
X73823000Y-113173386D01*
X73823000Y-114375500D01*
X73803315Y-114442539D01*
X73750511Y-114488294D01*
X73699000Y-114499500D01*
X66892682Y-114499500D01*
X66680235Y-114530044D01*
X66680225Y-114530047D01*
X66474284Y-114590517D01*
X66279061Y-114679672D01*
X66279048Y-114679679D01*
X66098485Y-114795720D01*
X65936275Y-114936275D01*
X65795720Y-115098485D01*
X65679679Y-115279048D01*
X65679672Y-115279061D01*
X65590517Y-115474284D01*
X65530047Y-115680225D01*
X65530044Y-115680235D01*
X65499500Y-115892682D01*
X65499500Y-148993038D01*
X65498720Y-149006922D01*
X65498720Y-149006923D01*
X65488540Y-149097264D01*
X65482362Y-149124333D01*
X65454648Y-149203537D01*
X65442600Y-149228555D01*
X65397957Y-149299604D01*
X65380644Y-149321313D01*
X65321313Y-149380644D01*
X65299604Y-149397957D01*
X65228555Y-149442600D01*
X65203537Y-149454648D01*
X65124333Y-149482362D01*
X65097264Y-149488540D01*
X65017075Y-149497576D01*
X65006921Y-149498720D01*
X64993038Y-149499500D01*
X59237000Y-149499500D01*
X59169961Y-149479815D01*
X59124206Y-149427011D01*
X59113000Y-149375500D01*
X59113000Y-148173386D01*
X59106586Y-148102807D01*
X59106586Y-148102804D01*
X59055978Y-147940394D01*
X58967972Y-147794815D01*
X58967970Y-147794813D01*
X58967969Y-147794811D01*
X58879819Y-147706661D01*
X58846334Y-147645338D01*
X58843500Y-147618980D01*
X58843500Y-96381020D01*
X58863185Y-96313981D01*
X58879819Y-96293339D01*
X58967968Y-96205189D01*
X58967969Y-96205188D01*
X58967972Y-96205185D01*
X59055978Y-96059606D01*
X59106586Y-95897196D01*
X59113000Y-95826616D01*
X59113000Y-94624500D01*
X59132685Y-94557461D01*
X59185489Y-94511706D01*
X59237000Y-94500500D01*
X73699000Y-94500500D01*
X73766039Y-94520185D01*
G37*
%TD.AperFunction*%
%TA.AperFunction,Conductor*%
G36*
X90766039Y-94520185D02*
G01*
X90811794Y-94572989D01*
X90823000Y-94624500D01*
X90823000Y-95826613D01*
X90829413Y-95897192D01*
X90880022Y-96059606D01*
X90968030Y-96205188D01*
X91058495Y-96295653D01*
X91091980Y-96356976D01*
X91094814Y-96383334D01*
X91094814Y-100889924D01*
X91093063Y-100907705D01*
X91093097Y-100907709D01*
X91092500Y-100913771D01*
X91092500Y-105618980D01*
X91072815Y-105686019D01*
X91056181Y-105706661D01*
X90968031Y-105794810D01*
X90968030Y-105794811D01*
X90880022Y-105940393D01*
X90829413Y-106102807D01*
X90823000Y-106173386D01*
X90823000Y-107375500D01*
X90803315Y-107442539D01*
X90750511Y-107488294D01*
X90699000Y-107499500D01*
X84392682Y-107499500D01*
X84180235Y-107530044D01*
X84180225Y-107530047D01*
X83974284Y-107590517D01*
X83779061Y-107679672D01*
X83779048Y-107679679D01*
X83598485Y-107795720D01*
X83436275Y-107936275D01*
X83295720Y-108098485D01*
X83179679Y-108279048D01*
X83179672Y-108279061D01*
X83090517Y-108474284D01*
X83030047Y-108680225D01*
X83030044Y-108680235D01*
X82999500Y-108892682D01*
X82999500Y-113993038D01*
X82998720Y-114006923D01*
X82988540Y-114097264D01*
X82982362Y-114124333D01*
X82954648Y-114203537D01*
X82942600Y-114228555D01*
X82897957Y-114299604D01*
X82880644Y-114321313D01*
X82821313Y-114380644D01*
X82799604Y-114397957D01*
X82728555Y-114442600D01*
X82703537Y-114454648D01*
X82624333Y-114482362D01*
X82597264Y-114488540D01*
X82517075Y-114497576D01*
X82506921Y-114498720D01*
X82493038Y-114499500D01*
X76237000Y-114499500D01*
X76169961Y-114479815D01*
X76124206Y-114427011D01*
X76113000Y-114375500D01*
X76113000Y-113173386D01*
X76106586Y-113102807D01*
X76106586Y-113102804D01*
X76055978Y-112940394D01*
X75967972Y-112794815D01*
X75967970Y-112794813D01*
X75967969Y-112794811D01*
X75879819Y-112706661D01*
X75846334Y-112645338D01*
X75843500Y-112618980D01*
X75843500Y-96381020D01*
X75863185Y-96313981D01*
X75879819Y-96293339D01*
X75967968Y-96205189D01*
X75967969Y-96205188D01*
X75967972Y-96205185D01*
X76055978Y-96059606D01*
X76106586Y-95897196D01*
X76113000Y-95826616D01*
X76113000Y-94624500D01*
X76132685Y-94557461D01*
X76185489Y-94511706D01*
X76237000Y-94500500D01*
X90699000Y-94500500D01*
X90766039Y-94520185D01*
G37*
%TD.AperFunction*%
%TA.AperFunction,Conductor*%
G36*
X107966039Y-94520185D02*
G01*
X108011794Y-94572989D01*
X108023000Y-94624500D01*
X108023000Y-95817870D01*
X108023001Y-95817876D01*
X108029408Y-95877483D01*
X108079702Y-96012328D01*
X108079706Y-96012335D01*
X108165951Y-96127543D01*
X108165952Y-96127544D01*
X108165954Y-96127546D01*
X108242813Y-96185082D01*
X108284682Y-96241014D01*
X108292500Y-96284347D01*
X108292500Y-100296068D01*
X108290117Y-100320260D01*
X108287000Y-100335931D01*
X108287000Y-100464069D01*
X108287000Y-100464071D01*
X108286999Y-100464071D01*
X108311997Y-100589738D01*
X108311999Y-100589744D01*
X108361033Y-100708124D01*
X108361038Y-100708133D01*
X108432223Y-100814668D01*
X108432226Y-100814672D01*
X108522827Y-100905273D01*
X108522831Y-100905276D01*
X108629366Y-100976461D01*
X108629372Y-100976464D01*
X108629373Y-100976465D01*
X108747756Y-101025501D01*
X108747760Y-101025501D01*
X108747761Y-101025502D01*
X108873428Y-101050500D01*
X108873431Y-101050500D01*
X109001571Y-101050500D01*
X109092853Y-101032342D01*
X109127244Y-101025501D01*
X109245627Y-100976465D01*
X109352169Y-100905276D01*
X109442776Y-100814669D01*
X109513965Y-100708127D01*
X109563001Y-100589744D01*
X109564843Y-100580482D01*
X109571899Y-100557222D01*
X109617540Y-100447036D01*
X109639641Y-100335931D01*
X109643500Y-100316533D01*
X109643500Y-96284347D01*
X109663185Y-96217308D01*
X109693185Y-96185083D01*
X109770046Y-96127546D01*
X109856296Y-96012331D01*
X109906591Y-95877483D01*
X109913000Y-95817873D01*
X109912999Y-94624499D01*
X109932684Y-94557461D01*
X109985487Y-94511706D01*
X110036999Y-94500500D01*
X124699000Y-94500500D01*
X124766039Y-94520185D01*
X124811794Y-94572989D01*
X124823000Y-94624500D01*
X124823000Y-95826613D01*
X124829413Y-95897192D01*
X124880022Y-96059606D01*
X124968030Y-96205188D01*
X125056181Y-96293339D01*
X125089666Y-96354662D01*
X125092500Y-96381020D01*
X125092500Y-101086233D01*
X125126143Y-101255366D01*
X125126146Y-101255378D01*
X125192138Y-101414698D01*
X125192145Y-101414711D01*
X125287954Y-101558098D01*
X125287957Y-101558102D01*
X125409897Y-101680042D01*
X125409901Y-101680045D01*
X125553288Y-101775854D01*
X125553301Y-101775861D01*
X125712621Y-101841853D01*
X125712626Y-101841855D01*
X125881766Y-101875499D01*
X125881769Y-101875500D01*
X125881771Y-101875500D01*
X126054231Y-101875500D01*
X126054232Y-101875499D01*
X126223374Y-101841855D01*
X126382705Y-101775858D01*
X126526099Y-101680045D01*
X126648045Y-101558099D01*
X126743858Y-101414705D01*
X126809855Y-101255374D01*
X126843500Y-101086229D01*
X126843500Y-96381020D01*
X126863185Y-96313981D01*
X126879819Y-96293339D01*
X126967968Y-96205189D01*
X126967969Y-96205188D01*
X126967972Y-96205185D01*
X127055978Y-96059606D01*
X127106586Y-95897196D01*
X127113000Y-95826616D01*
X127113000Y-94624500D01*
X127132685Y-94557461D01*
X127185489Y-94511706D01*
X127237000Y-94500500D01*
X141699000Y-94500500D01*
X141766039Y-94520185D01*
X141811794Y-94572989D01*
X141823000Y-94624500D01*
X141823000Y-95826613D01*
X141829413Y-95897192D01*
X141880022Y-96059606D01*
X141968030Y-96205188D01*
X142056181Y-96293339D01*
X142089666Y-96354662D01*
X142092500Y-96381020D01*
X142092500Y-100588549D01*
X142075892Y-100645376D01*
X142077858Y-100646351D01*
X141994125Y-100815180D01*
X141950267Y-100991539D01*
X141947500Y-101032347D01*
X141947500Y-101447653D01*
X141947501Y-101447657D01*
X141950266Y-101488455D01*
X141950266Y-101488456D01*
X141994125Y-101664819D01*
X142074870Y-101827626D01*
X142086309Y-101841856D01*
X142188728Y-101969272D01*
X142330373Y-102083129D01*
X142493182Y-102163875D01*
X142669542Y-102207733D01*
X142710345Y-102210500D01*
X143225654Y-102210499D01*
X143266458Y-102207733D01*
X143442818Y-102163875D01*
X143605627Y-102083129D01*
X143747272Y-101969272D01*
X143861129Y-101827627D01*
X143941875Y-101664818D01*
X143985733Y-101488458D01*
X143988500Y-101447655D01*
X143988499Y-101032346D01*
X143985733Y-100991542D01*
X143941875Y-100815182D01*
X143861129Y-100652373D01*
X143861128Y-100652371D01*
X143858142Y-100646351D01*
X143860107Y-100645376D01*
X143843500Y-100588549D01*
X143843500Y-96381020D01*
X143863185Y-96313981D01*
X143879819Y-96293339D01*
X143967968Y-96205189D01*
X143967969Y-96205188D01*
X143967972Y-96205185D01*
X144055978Y-96059606D01*
X144106586Y-95897196D01*
X144113000Y-95826616D01*
X144113000Y-94624500D01*
X144132685Y-94557461D01*
X144185489Y-94511706D01*
X144237000Y-94500500D01*
X148934108Y-94500500D01*
X148993038Y-94500500D01*
X149006922Y-94501280D01*
X149097266Y-94511459D01*
X149124331Y-94517636D01*
X149203540Y-94545352D01*
X149228553Y-94557398D01*
X149299606Y-94602043D01*
X149321313Y-94619355D01*
X149380644Y-94678686D01*
X149397957Y-94700395D01*
X149442600Y-94771444D01*
X149454648Y-94796462D01*
X149482362Y-94875666D01*
X149488540Y-94902735D01*
X149498720Y-94993076D01*
X149499500Y-95006961D01*
X149499500Y-106993038D01*
X149498720Y-107006923D01*
X149488540Y-107097264D01*
X149482362Y-107124333D01*
X149454648Y-107203537D01*
X149442600Y-107228555D01*
X149397957Y-107299604D01*
X149380644Y-107321313D01*
X149321313Y-107380644D01*
X149299604Y-107397957D01*
X149228555Y-107442600D01*
X149203537Y-107454648D01*
X149124333Y-107482362D01*
X149097264Y-107488540D01*
X149017075Y-107497576D01*
X149006921Y-107498720D01*
X148993038Y-107499500D01*
X93237000Y-107499500D01*
X93169961Y-107479815D01*
X93124206Y-107427011D01*
X93113000Y-107375500D01*
X93113000Y-106173386D01*
X93106586Y-106102807D01*
X93106586Y-106102804D01*
X93055978Y-105940394D01*
X92967972Y-105794815D01*
X92967970Y-105794813D01*
X92967969Y-105794811D01*
X92879819Y-105706661D01*
X92846334Y-105645338D01*
X92843500Y-105618980D01*
X92843500Y-101107761D01*
X92845251Y-101089983D01*
X92845217Y-101089980D01*
X92845814Y-101083917D01*
X92845814Y-96378705D01*
X92865499Y-96311666D01*
X92882128Y-96291028D01*
X92967972Y-96205185D01*
X93055978Y-96059606D01*
X93106586Y-95897196D01*
X93113000Y-95826616D01*
X93113000Y-94624500D01*
X93132685Y-94557461D01*
X93185489Y-94511706D01*
X93237000Y-94500500D01*
X107899000Y-94500500D01*
X107966039Y-94520185D01*
G37*
%TD.AperFunction*%
%TD*%
M02*
