M48
; DRILL file {KiCad 9.0.0} date 2025-07-17T14:07:28-0700
; FORMAT={-:-/ absolute / metric / decimal}
; #@! TF.CreationDate,2025-07-17T14:07:28-07:00
; #@! TF.GenerationSoftware,Kicad,Pcbnew,9.0.0
; #@! TF.FileFunction,Plated,1,4,PTH
FMAT,2
METRIC
; #@! TA.AperFunction,Plated,PTH,ViaDrill
T1C0.300
%
G90
G05
T1
X52.75Y-144.75
X52.75Y-148.75
X53.5Y-95.0
X53.5Y-99.0
X56.0Y-100.0
X56.0Y-102.5
X56.0Y-105.0
X56.0Y-107.5
X56.0Y-110.0
X56.0Y-112.5
X56.0Y-115.0
X56.0Y-117.5
X56.0Y-120.0
X56.0Y-122.5
X56.0Y-125.0
X56.0Y-127.5
X56.0Y-130.0
X56.0Y-132.5
X56.0Y-135.0
X56.0Y-137.5
X56.0Y-140.0
X56.0Y-143.5
X60.0Y-100.0
X60.0Y-102.5
X60.0Y-105.0
X60.0Y-107.5
X60.0Y-110.0
X60.0Y-112.5
X60.0Y-115.0
X60.0Y-117.5
X60.0Y-120.0
X60.0Y-122.5
X60.0Y-125.0
X60.0Y-127.5
X60.0Y-130.0
X60.0Y-132.5
X60.0Y-135.0
X60.0Y-137.5
X60.0Y-140.0
X60.0Y-143.5
X62.5Y-95.0
X62.5Y-99.0
X62.5Y-144.75
X62.5Y-148.75
X70.0Y-109.75
X70.0Y-113.75
X73.0Y-100.0
X73.0Y-102.5
X73.0Y-105.25
X73.0Y-107.5
X73.0Y-109.5
X77.0Y-100.0
X77.0Y-102.5
X77.0Y-105.25
X77.0Y-107.5
X77.0Y-109.5
X80.0Y-109.75
X80.0Y-113.75
X87.25Y-95.0
X87.25Y-99.0
X87.25Y-102.5
X87.25Y-106.5
X90.0Y-100.0
X90.0Y-102.25
X94.0Y-100.0
X94.0Y-102.25
X96.5Y-95.0
X96.5Y-99.0
X96.75Y-102.5
X96.75Y-106.5
X104.25Y-95.0
X104.25Y-99.0
X107.0Y-100.0
X109.0Y-101.75
X111.0Y-100.0
X113.5Y-95.0
X113.5Y-99.0
X121.25Y-95.0
X121.25Y-99.0
X124.0Y-100.0
X126.0Y-102.75
X128.0Y-100.0
X130.75Y-95.0
X130.75Y-99.0
X138.25Y-95.0
X138.25Y-99.0
X141.0Y-100.0
X143.0Y-103.25
X145.0Y-100.0
X147.5Y-95.0
X147.5Y-99.0
M30
